<svg width="38" height="44" viewBox="0 0 38 44" fill="none" xmlns="http://www.w3.org/2000/svg">
<path id="Vector" d="M0 18.6927C0 36.913 0.0117869 37.4218 0.235738 38.3304C0.742576 40.3778 2.05092 42.1344 3.76003 43.0551C5.20982 43.8425 5.46913 43.8789 9.17022 43.9394L12.5059 44L13.2014 43.2731C15.2994 41.0441 16.4899 37.8822 16.1363 35.4593C15.7591 32.7698 14.5804 31.0374 11.3154 28.348C8.96985 26.4097 7.46112 24.641 6.76569 23.0176C6.60068 22.6178 6.54174 22.2059 6.54174 21.3822C6.54174 20.3645 6.56531 20.2313 7.00143 19.3227C7.35504 18.5958 7.67329 18.1476 8.35693 17.4449C9.27631 16.5121 11.3037 15.0099 12.4823 14.3921C12.8477 14.1982 13.3546 13.9317 13.6139 13.7985C15.1462 12.9868 19.2009 11.2665 19.5899 11.2665C19.8138 11.2665 19.6606 11.6057 19.3659 11.7511C18.753 12.0782 17.0321 13.3139 16.2306 14.0165C14.4626 15.5672 13.2956 17.4692 13.1306 19.0319C12.9892 20.4736 13.5432 21.9515 14.6983 23.1993C15.4409 24.011 16.7374 25.0407 17.8336 25.6707C18.0693 25.804 18.4701 26.0463 18.7176 26.1795C18.9534 26.3249 19.2952 26.543 19.472 26.6641C19.637 26.7974 19.8374 26.8943 19.9081 26.8943C19.9788 26.8943 20.0378 26.9427 20.0378 27.0154C20.0378 27.076 20.0849 27.1366 20.1438 27.1366C20.2381 27.1366 21.6761 28.1421 22.2773 28.6267C24.894 30.7346 26.3084 32.37 27.3221 34.4659C28.0057 35.8833 28.1118 36.4163 28.1118 38.2819C28.1118 40.1597 27.9821 40.6564 26.9803 42.6311C26.662 43.261 26.4027 43.7819 26.4027 43.8062C26.4027 43.9515 27.6168 43.8183 28.3358 43.6002C32.6733 42.2919 36.9756 36.7313 37.6121 31.6068C37.9539 28.9295 37.1406 25.5253 35.5611 22.9934C34.5003 21.2731 32.5555 19.4317 30.9171 18.5595C30.4456 18.3172 30.0566 18.0749 30.0566 18.0264C30.0566 17.9901 30.2688 17.7841 30.5163 17.5661C31.5772 16.7059 32.7205 14.8888 33.3098 13.1443C33.5809 12.3205 33.6399 11.9207 33.687 10.4791C33.7342 8.61343 33.5338 7.36564 32.968 6.03304C31.8836 3.51321 29.538 1.30837 27.1099 0.545151C25.4715 0.0242271 25.0354 0.0121117 12.2348 0H0V18.6927Z" fill="#F53D47"/>
</svg>
